<svg xmlns="http://www.w3.org/2000/svg" viewBox="0 0 911.19 209.33"><defs><style>.cls-1{fill:#fff;}</style></defs><g id="Layer_2" data-name="Layer 2"><g id="Layer_1-2" data-name="Layer 1"><path class="cls-1" d="M12.05,1.31A203,203,0,0,1,35.89,0q28.3,0,31.44,6.81a15.21,15.21,0,0,1,1.31,5.77q0,6-11,10.87t-12,10.08a112.89,112.89,0,0,0-.51,19.65V176.06q0,8.12-.25,13.1a36.3,36.3,0,0,1-1.75,10.74,19,19,0,0,1-3.75,6.29H37.06a9.78,9.78,0,0,1-4.5.78q-7.76-.78-9-11a120.79,120.79,0,0,1-.49-20.17V67.59q0,.27.78-17a97.93,97.93,0,0,0-.78-17Q22,27,11.66,23.84T.26,15.46A19.69,19.69,0,0,1,0,12.31Q0,2.62,12.05,1.31Z"/><path class="cls-1" d="M92.69,1.31q13.68-1.83,13.68,32.14,0,7.13-.66,21.09t-.65,19a59,59,0,0,0,.54,9.23,11.25,11.25,0,0,0,4.93,7.11q5.48,4,9.31,4,9.57,0,9.58-28.55,0-4.72-.78-15.2t-.79-15.46q0-33.27,11.38-33.27a15.16,15.16,0,0,1,6,1.44q3.31,1.44,4.64,10.09,2.91,18.33,2.91,45.58,0,14.16-1.05,42.18T150.64,141q0,5,.79,17t.78,18.34q0,14.94-2.91,23.06a18.76,18.76,0,0,1-4,6.28,13.5,13.5,0,0,1-5.56,1.31q-11.93,0-11.92-33.79,0-7.34.79-21.22t.78-18.61a45.69,45.69,0,0,0-.55-8.12,12.13,12.13,0,0,0-4.93-7.07q-5.47-3.68-9.3-3.67-9.58,0-9.58,28.56,0,4.71.65,15.19t.66,15.46Q106.37,207,95.1,207a14.94,14.94,0,0,1-5.76-1.31q-2.1-1-3.93-6.3-2.88-8.42-2.89-24.17,0-6.83.66-19.83t.65-18.52V29.68a132,132,0,0,1,.51-17.34c.51-3.85,2-6.74,4.56-8.67A13.81,13.81,0,0,1,92.69,1.31Z"/><path class="cls-1" d="M195.7.52q18.35,0,21,6a15.11,15.11,0,0,1,1.57,6.29q0,5.78-9.59,9.19Q197.75,26,196.46,28.86q-2.33,3.93-2.33,24.39,0,33.57,4,37.25c1.24,1.23,3.62,2.27,7.16,3.15,4.23.88,6.88,1.66,7.94,2.36a10.18,10.18,0,0,1,5,9.18,23.53,23.53,0,0,1-.26,3.15c-.18,1.23-1.5,2.71-4,4.46q-1.59,1-9.54,3.67-6.36,1.84-8,5-2.38,4.2-2.38,29.65t2.12,29.38q2.12,3.93,12.18,6.82a12.93,12.93,0,0,1,6.89,4.72,12.14,12.14,0,0,1,2.91,7.61q0,5-5,7.34t-15.81,2.36q-20,0-22.92-6t-2.9-18.63q0-5,.65-14.82t.66-13.51V44.6q0-2.9-.87-12.07-.43-8.13-.44-12.59a43.59,43.59,0,0,1,1.57-11Q175.78.52,195.7.52Z"/><path class="cls-1" d="M289.49,1.57q12-1.83,13.36,12.82,0,11.77.27,23.55a10.88,10.88,0,0,0,5.5,7.85,82.5,82.5,0,0,1,14.93,5.5q3.93,3.66,3.93,28.26,0,23.81-2.09,33.75-7.08,1.58-13.89,3.4-7.33,2.61-8.38,9.16a58.62,58.62,0,0,0-.79,11q0,5.49.66,20t.65,21.84q0,23-5.24,26.43a7,7,0,0,0-.79,1.57,12.08,12.08,0,0,1-5,1q-7.86,0-10.22-5-3.15-6.54-3.14-94.46,0-91.06,3.14-99.69Q284.77,2.1,289.49,1.57Zm72.31,0q2.63-.26,6.16,2.88A12.18,12.18,0,0,1,372,12.58a141.7,141.7,0,0,1,.79,20.69q-.8,21-.79,20.7v87.24q0,5,.66,17.43t.65,19q0,15.19-2.88,23.06a19,19,0,0,1-3.93,6.28,11.12,11.12,0,0,1-3.93.79q-8.91,0-10.48-11,0-2.1.26-14.41.25-9.69-1.83-13.5t-12.32-6.94q-8.64-2.61-9.69-10.48a88.24,88.24,0,0,1,1.57-31.7q6.81-1.83,13.89-4.06t8.12-8.78a113.45,113.45,0,0,0,1.83-21.48q0-9.16-1.31-27.64t-1.31-27.38q0-9.69.79-17.81.78-6,5-8.65A11.7,11.7,0,0,1,361.8,1.57Z"/><path class="cls-1" d="M416.29.52q18.34,0,21,6a15.13,15.13,0,0,1,1.58,6.29q0,5.78-9.6,9.19c-7.25,2.62-11.32,4.89-12.17,6.82q-2.34,3.93-2.34,24.39,0,33.57,4,37.25c1.23,1.23,3.61,2.27,7.15,3.15,4.23.88,6.88,1.66,7.94,2.36a10.17,10.17,0,0,1,5,9.18,23.74,23.74,0,0,1-.27,3.15c-.18,1.23-1.5,2.71-4,4.46q-1.59,1-9.54,3.67-6.36,1.84-7.95,5-2.37,4.2-2.38,29.65t2.12,29.38Q419,184.41,429,187.3a12.93,12.93,0,0,1,6.89,4.72,12.15,12.15,0,0,1,2.92,7.61c0,3.32-1.68,5.77-5,7.34s-8.61,2.36-15.81,2.36q-20,0-22.92-6t-2.9-18.63q0-5,.66-14.82t.65-13.51V44.6q0-2.9-.87-12.07-.44-8.13-.44-12.59a44.05,44.05,0,0,1,1.57-11Q396.39.52,416.29.52Z"/><path class="cls-1" d="M465.55,1.31q6.29-.26,8.64,4.72,3.15,6.29,3.15,57.11,0,54.23-2.36,67.86c-.18,1.57-.4,3.05-.66,4.45a3,3,0,0,1-2.22,2.62,13.33,13.33,0,0,1-3.67.52q-8.13,0-10.74-5.24t-2.62-72.57q0-46.63,1.83-52.4Q459,1.57,465.55,1.31Zm20.69,139.12q1.83,0,11.79,2.36,2.37,10.74,2.36,29.86,0,32.76-8.64,34.32-9.44,1.83-12.58-4.71-2.62-5.5-2.62-23.84,0-23.58,2.62-35.63A53.87,53.87,0,0,1,486.24,140.43ZM510.14,1.31Q519.11,0,521.93,6q2.3,5,2.3,80.43,0,44.79-1.57,48.47a4.27,4.27,0,0,1-3,2.49c-1.31.26-2.75.48-4.32.65q-3.15.78-12.58-1.57-3.15-13.89-3.14-36.42,0-9.69.78-28.95t.79-27.9V31.44q-.27-7.86,0-12.32a37.37,37.37,0,0,1,1.28-10.74Q504.25,2.1,510.14,1.31Zm19.79,139.9q3.62-.78,13.2,1.58,2.32,11,2.32,29.86,0,33.28-9.31,34.32-11.91,1.32-11.91-31.44A138.49,138.49,0,0,1,526,152.48Q527.86,141.74,529.93,141.21ZM555.21,1.31q9-1.31,11.66,4.58t2.69,71.66q0,47.16-1.84,53.32t-7.07,7.2q-3.4.78-12.84-1.57-3.13-13.89-3.14-36.42,0-9.69.78-28.95t.79-27.9V31.44q-.27-7.86,0-12.32a37.72,37.72,0,0,1,1.28-10.74Q549.32,2.1,555.21,1.31Z"/><path class="cls-1" d="M642.28,25.15q10.37-1.83,12.44,3.14a25.88,25.88,0,0,1,1.82,9.44c0,2.79-.18,6.64-.53,11.52q-.53,8.13-.52,10.48,0,11.28,1,36.68t1.05,38.25q0,24.9-2.86,41.14c-.17,1.57-.39,3-.64,4.45a3.35,3.35,0,0,1-2.47,2.75,13.62,13.62,0,0,1-4.15.66q-9.59,0-12.18-5.24-2.85-6.3-2.86-82.79,0-56.32,2.08-63.41A9.35,9.35,0,0,1,642.28,25.15ZM666.39,1.31q5.68-.78,9.18,3a12.92,12.92,0,0,1,3.5,9q0,8.38-7.25,9.43-14,1.58-14-9.95Q657.85,2.63,666.39,1.31Zm-.26,184.18q12.93-1.05,12.94,10,0,9.69-7.51,11.26c-4.14.87-7.5-.08-10.09-2.88a11.68,11.68,0,0,1-3.62-8.91Q657.85,186,666.13,185.49ZM685.49,25.15a9.37,9.37,0,0,1,3.06-.52q12.8,0,12.79,21.74A41.28,41.28,0,0,1,698.53,62q-2.82,6.95-6.91,7.47-11.5,1-11.5-23.58Q680.12,26.46,685.49,25.15Zm5,116.06q10.88-.26,10.87,20.44,0,19.4-8.54,21.48-12.69,2.9-12.68-18.08a43.93,43.93,0,0,1,3-16.37Q686.06,141.21,690.47,141.21Z"/><path class="cls-1" d="M724.91,1.31Q735.14-.27,737.62,8t2.49,21.38q0,6.56-.79,19.54t-.78,18.23V177.07A174.79,174.79,0,0,1,738,197c-.52,4.19-2,7.34-4.62,9.44l-.77.79a11.77,11.77,0,0,1-4.87,1q-7.69,0-10-5-3.07-6.56-3.07-95,0-91.29,3.14-99.95Q720.2,1.83,724.91,1.31Z"/><path class="cls-1" d="M771.55,1.31A202.87,202.87,0,0,1,795.39,0q28.29,0,31.44,6.81a15.21,15.21,0,0,1,1.31,5.77q0,6-11,10.87t-12,10.08a112.89,112.89,0,0,0-.51,19.65V176.06q0,8.12-.25,13.1a36.62,36.62,0,0,1-1.75,10.74,19.2,19.2,0,0,1-3.75,6.29h-2.25a9.83,9.83,0,0,1-4.51.78q-7.74-.78-9-11a121.73,121.73,0,0,1-.5-20.17V67.59q0,.27.79-17a96.8,96.8,0,0,0-.79-17q-1-6.54-11.4-9.69t-11.39-8.38a18.6,18.6,0,0,1-.26-3.15Q759.5,2.62,771.55,1.31Z"/><path class="cls-1" d="M851.19,1.31q14.4-1.83,14.41,32.22,0,7.35-.66,21.23t-.65,19.12a63.12,63.12,0,0,0,.52,9.17,12.19,12.19,0,0,0,4.46,7.47,13.16,13.16,0,0,0,8.64,3,15.74,15.74,0,0,0,5-.78q7.86-2.88,7.86-32,0-6.81-.39-20.3T890,22a76.71,76.71,0,0,1,.51-9.83A23.2,23.2,0,0,1,892,6a4.88,4.88,0,0,1,2.84-2.36L899,2.1a18.9,18.9,0,0,0,2.33-.79c4,.52,6.6,2.93,7.9,7.2s1.94,18,1.94,41.27q0,49.77-2.88,57.9-1.57,4.71-10.09,8.51T888.66,126q-1.85,10-.27,27.51,1.83,23.33,1.84,28a67.36,67.36,0,0,1-2.36,19.13q-1.57,5-5,6.28c-2.09.88-5,.88-8.64,0q-6.82-1.83-7.86-10.21a102.8,102.8,0,0,1-.79-13.37q0-6.81.92-20.56t.91-20.57a113.16,113.16,0,0,0-1-16.24,11.14,11.14,0,0,0-7.08-8.65q-4.45-1.31-8.64-2.62-5.25-1.83-6.55-4.71-2.62-5.25-2.62-57.64,0-38,1.83-44A9.41,9.41,0,0,1,851.19,1.31Z"/></g></g></svg>